<svg xmlns="http://www.w3.org/2000/svg" viewBox="0 0 500 500"><style>.a{fill:#415E72;}.b{fill:#FCD577;}.c{fill:#CFDCE5;}.d{fill:#BAC6CC;}.e{fill:#FF6F52;}</style><path d="M364.1 373.8v115.1h-62L317.8 390.3c1.5-9.5 9.7-16.4 19.3-16.4H364.1z" class="a"/><path d="M241.7 179.8v30c-13.9-5.4-29.1-8.4-44.9-8.4 -15.8 0-31 3-44.9 8.4v-30c0-8.2 6.7-14.9 14.9-14.9h12.6 39.3 8.1C235 164.9 241.7 171.6 241.7 179.8z" class="b"/><polygon points="390.7 129.4 390.7 477.3 351.4 477.3 351.4 373.8 351.4 105.7 " class="c"/><polygon points="365.3 129.4 365.3 477.3 351.4 477.3 351.4 373.8 351.4 105.7 " class="d"/><path d="M390.7 105.7v23.7h-39.3v-23.7c0-36.6-29.8-66.4-66.4-66.4s-66.4 29.8-66.4 66.4v59.2h-39.3v-59.2C179.3 47.4 226.8 0 285 0S390.7 47.4 390.7 105.7z" class="a"/><path d="M57.6 512h-9.8c-6.7 0-12.2-5.5-12.2-12.2V386c0-6.7 5.5-12.2 12.2-12.2h10.7c8.1 0 14.6 6.6 14.6 14.6v96.2 11.8C73.1 505 66.1 512 57.6 512z" class="a"/><path d="M241.7 198.1c-13.9-5.4-29.1-8.4-44.9-8.4 -15.8 0-31 3-44.9 8.4 -46.1 18-78.7 62.8-78.7 115.2v171.4c0 15.1 12.2 27.3 27.3 27.3h166.4l53.6-53.1V313.3C320.4 260.8 287.8 216 241.7 198.1z" class="c"/><path d="M90.6 484.7V313.3c0-52.5 32.7-97.3 78.7-115.2 11.3-4.4 23.5-7.2 36.2-8.1 -2.9-0.2-5.8-0.3-8.8-0.3 -15.8 0-31 3-44.9 8.4 -46.1 18-78.7 62.8-78.7 115.2v171.4c0 15.1 12.2 27.3 27.3 27.3h17.5C102.9 512 90.6 499.8 90.6 484.7z" class="d"/><circle cx="132" cy="454" r="24.7" class="e"/><circle cx="196.8" cy="306.2" r="73.3" class="a"/><path d="M248.2 297.1h-35.5c-4 0-7.2-3.2-7.2-7.2v-35.5c0-4.9 4.8-8.4 9.4-6.9 19.1 6 34.2 21.1 40.2 40.2C256.6 292.4 253.1 297.1 248.2 297.1z" class="e"/><path d="M188 254.4v35.5c0 4-3.2 7.2-7.2 7.2h-35.5c-4.9 0-8.4-4.8-6.9-9.4 6-19.1 21.1-34.2 40.2-40.2C183.2 246 188 249.5 188 254.4z" class="e"/><path d="M248.2 314.7c4.9 0 8.4 4.8 6.9 9.4 -7.8 24.9-31 43-58.4 43 -27.4 0-50.6-18.1-58.4-43 -1.5-4.7 2-9.4 6.9-9.4h103V314.7z" class="b"/><path d="M320.4 458.9l-53.6 53.1h-21V482.7c0-13.1 10.6-23.7 23.7-23.7H320.4z" class="d"/><path d="M476.4 482.7V512H357.9h-91.1v0 -29.3c0-13.1 10.6-23.7 23.7-23.7h29.8 31 39.3 62C465.8 458.9 476.4 469.6 476.4 482.7z" class="b"/><path d="M283.2 482.7c0-13.1 10.6-23.7 23.7-23.7h-16.4c-13.1 0-23.7 10.6-23.7 23.7v29.3 0h16.4v0V482.7L283.2 482.7z" fill="#EAC36E"/></svg>