<svg xmlns="http://www.w3.org/2000/svg" viewBox="0 0 502 502"><style>.a{fill:#4FC497;}.b{fill:#333;}</style><circle cx="251" cy="251" r="241" class="a"/><circle cx="251" cy="251" r="190" fill="#D7E6D8"/><path d="M286.4 312.6c-31.1 31.1-81.6 31.1-112.7 0s-31.1-81.6 0-112.7c64.6-64.6 204.8-0.4 204.8-0.4S317.5 281.4 286.4 312.6z" class="a"/><path d="M428.5 73.5C381.1 26.1 318 0 251 0S120.9 26.1 73.5 73.5C26.1 120.9 0 184 0 251s26.1 130.1 73.5 177.5C120.9 475.9 184 502 251 502s130.1-26.1 177.5-73.5C475.9 381.1 502 318 502 251S475.9 120.9 428.5 73.5zM251 482C123.6 482 20 378.4 20 251S123.6 20 251 20s231 103.6 231 231S378.4 482 251 482z" class="b"/><path d="M251 51C140.7 51 51 140.7 51 251s89.7 200 200 200 200-89.7 200-200S361.3 51 251 51zM251 431c-99.3 0-180-80.7-180-180S151.7 71 251 71s180 80.7 180 180S350.3 431 251 431z" class="b"/><path d="M388.1 196.9c-0.7-2.9-2.8-5.3-5.5-6.6 -1.5-0.7-36.7-16.7-80.5-24.8 -26.1-4.8-49.8-5.8-70.5-3 -26.8 3.7-48.7 13.9-65 30.2 -16.9 16.9-26.3 39.5-26.3 63.4 0 16.9 4.7 33.1 13.4 47.2 -6.5 9.2-12 18.2-16.4 27 -2.5 4.9-0.5 10.9 4.4 13.4 1.4 0.7 3 1.1 4.5 1.1 3.7 0 7.2-2 8.9-5.5 3.2-6.4 7.1-12.9 11.6-19.6 16.9 16.9 39.4 26.2 63.3 26.2 24 0 46.5-9.3 63.4-26.3 31.3-31.3 90.5-110.9 93-114.3C388.3 203 388.9 199.8 388.1 196.9zM279.3 305.5L279.3 305.5c-13.2 13.2-30.7 20.4-49.3 20.4s-36.1-7.3-49.3-20.4c-13.2-13.2-20.4-30.7-20.4-49.3 0-18.6 7.3-36.1 20.4-49.3 19.4-19.4 46.9-25.9 75-25.9 31.7 0 64.3 8.3 87.3 15.8 -21.6 4.6-51.7 12.4-78 24 -5.1 2.2-7.3 8.1-5.1 13.2 1.7 3.7 5.3 6 9.2 6 1.3 0 2.7-0.3 4-0.9 27.5-12.1 60.3-20 81.1-24.2C334 241.3 299.8 285 279.3 305.5z" class="b"/><path d="M237.2 235.8c-5.1 3.5-9.7 7.1-13.5 10.9 -4 3.8-4.1 10.2-0.2 14.1 2 2 4.6 3 7.2 3 2.5 0 5-0.9 7-2.8 3-2.9 6.7-5.9 10.8-8.7 4.6-3.1 5.8-9.3 2.7-13.9C247.9 233.9 241.7 232.7 237.2 235.8z" class="b"/><path d="M251 105c10.1 0 20.2 1 30 3.1 0.7 0.1 1.4 0.2 2.1 0.2 4.6 0 8.8-3.2 9.8-8 1.1-5.4-2.3-10.7-7.7-11.8C273.9 86.2 262.5 85 251 85c-5.5 0-10 4.5-10 10S245.5 105 251 105z" class="b"/><path d="M210.8 110.6c5.3-1.5 8.4-7.1 6.9-12.4s-7.1-8.4-12.4-6.9c-34 9.7-64.6 30.6-86.2 58.8C96.8 179.4 85 214.2 85 251c0 5.5 4.5 10 10 10s10-4.5 10-10C105 186.2 148.5 128.4 210.8 110.6z" class="b"/></svg>