<svg xmlns="http://www.w3.org/2000/svg" viewBox="0 0 512 512"><style>.a{fill:#FFB980;}.b{fill:#F8AB6B;}.c{fill:#FDC88E;}</style><path d="M126.8 306.2c-18.5 0-35.2-7.9-47.5-20.7 0 7.7-0.3 18.7-2.3 26.8 1.3 0.8 2.4 2.2 2.6 3.8 2.6 21.5 23 37.6 47.3 37.6 24.3 0 44.7-16.2 47.3-37.6 0.2-1.7 1.2-3 2.6-3.8 -2-8.1-2.3-19.1-2.3-26.8C162 298.3 145.2 306.2 126.8 306.2z" class="a"/><path d="M173.3 286.5c-12.2 12.2-28.6 19.7-46.5 19.7 -18.5 0-35.2-7.9-47.5-20.7 0 7.7-0.3 18.7-2.3 26.8 1.3 0.8 2.4 2.2 2.6 3.8 1.2 9.5 5.8 17.9 12.7 24.4C124 336.1 160.1 304.6 173.3 286.5z" class="b"/><path d="M223.2 318c-0.2-0.1-0.4-0.1-0.6-0.1l-42.2-6.3c-0.3 0-0.8-0.1-1.1-0.1 -2.7 0-4.9 2-5.2 4.6 -2.6 21.4-23 37.6-47.3 37.6 -24.3 0-44.7-16.2-47.3-37.6 -0.3-2.7-2.8-4.8-5.4-4.6 -0.3 0-0.6 0-0.9 0.1l-42.2 6.3c-0.2 0-0.4 0.1-0.6 0.1C10.4 323.6 0 343.2 0 359.7v20.5c0 8.7 7.8 15.8 17.3 15.8h219c9.5 0 17.3-7.1 17.3-15.8v-20.5C253.6 343.2 243.1 323.6 223.2 318z" fill="#00E68C"/><path d="M174.3 174.1H84.5c-14.6 0-26.4 11.9-26.4 26.4v31.7c0 40.8 30.8 74 68.7 74s68.7-33.2 68.7-74v-37C195.5 183.6 186 174.1 174.3 174.1z" class="c"/><path d="M163.8 116H95.1c-9.9 0-18.3 6.9-20.5 16.1 -18.2 2.3-32.3 17.9-32.3 36.7v26.4c0 13.6 5.8 26.3 15.8 35.3v-30.1c0-14.6 11.9-26.4 26.4-26.4h89.8c11.7 0 21.1 9.5 21.1 21.1v35.3c10.1-9 15.8-21.7 15.8-35.3v-31.7C211.3 137.4 190 116 163.8 116z" fill="#5C546A"/><path d="M385.2 306.2c-18.5 0-35.2-7.9-47.5-20.7 0 7.7-0.3 18.7-2.3 26.8 1.3 0.8 2.4 2.2 2.6 3.8 2.6 21.5 23 37.6 47.3 37.6 24.3 0 44.7-16.2 47.3-37.6 0.2-1.7 1.2-3 2.6-3.8 -2-8.1-2.3-19.1-2.3-26.8C420.4 298.3 403.7 306.2 385.2 306.2z" class="a"/><path d="M431.7 286.5c-12.2 12.2-28.6 19.7-46.5 19.7 -18.5 0-35.2-7.9-47.5-20.7 0 7.7-0.3 18.7-2.3 26.8 1.3 0.8 2.4 2.2 2.6 3.8 1.2 9.5 5.8 17.9 12.7 24.4C382.4 336.1 418.5 304.6 431.7 286.5z" class="b"/><path d="M481.6 318c-0.2-0.1-0.4-0.1-0.6-0.1l-42.2-6.3c-0.3 0-0.8-0.1-1.1-0.1 -2.7 0-4.9 2-5.2 4.6 -2.6 21.4-23 37.6-47.3 37.6 -24.3 0-44.7-16.2-47.3-37.6 -0.3-2.7-2.8-4.8-5.4-4.6 -0.3 0-0.6 0-0.9 0.1l-42.2 6.3c-0.2 0-0.4 0.1-0.6 0.1 -19.9 5.6-30.4 25.2-30.4 41.7v20.5c0 8.7 7.8 15.8 17.3 15.8h219c9.5 0 17.3-7.1 17.3-15.8v-20.5C512 343.2 501.6 323.6 481.6 318z" fill="#00ABFF"/><path d="M432.8 174.1h-89.8c-14.6 0-26.4 11.9-26.4 26.4v31.7c0 40.8 30.8 74 68.7 74s68.7-33.2 68.7-74v-37C453.9 183.6 444.4 174.1 432.8 174.1z" class="c"/><path d="M422.2 116h-68.7c-9.9 0-18.3 6.9-20.5 16.1 -18.2 2.3-32.3 17.9-32.3 36.7v26.4c0 13.6 5.8 26.3 15.8 35.3v-30.1c0-14.6 11.9-26.4 26.4-26.4h89.8c11.7 0 21.1 9.5 21.1 21.1v35.3c10.1-9 15.8-21.7 15.8-35.3v-31.7C469.7 137.4 448.4 116 422.2 116z" fill="#7E5C62"/><path d="M256 332c-27.9 0-53.3-12-72-31.4 0 11.6-0.4 28.4-3.5 40.6 2 1.2 3.6 3.3 3.9 5.8 4 32.5 34.8 57 71.6 57 36.8 0 67.6-24.5 71.6-57 0.3-2.5 1.8-4.5 3.9-5.8 -3.1-12.2-3.5-29-3.5-40.6C309.3 320 283.9 332 256 332z" class="c"/><path d="M326.4 302.1c-18.5 18.5-43.2 29.9-70.4 29.9 -27.9 0-53.3-12-72-31.4 0 11.6-0.4 28.4-3.5 40.6 2 1.2 3.6 3.3 3.9 5.8 1.8 14.4 8.8 27.1 19.2 37C251.8 377.2 306.4 329.7 326.4 302.1z" class="a"/><path d="M402 349.9c-0.3-0.1-0.6-0.2-1-0.2l-63.9-9.6c-0.4-0.1-1.2-0.1-1.6-0.1 -4 0-7.4 3-7.9 7 -4 32.5-34.8 57-71.6 57 -36.8 0-67.6-24.5-71.6-57 -0.5-4.1-4.2-7.2-8.1-7 -0.5 0-0.9 0-1.4 0.1l-63.9 9.6c-0.3 0-0.6 0.1-1 0.2C79.8 358.4 64 388.1 64 413v31c0 13.2 11.8 23.9 26.2 23.9h331.6c14.4 0 26.2-10.7 26.2-23.9v-31C448 388.1 432.2 358.4 402 349.9z" fill="#FF4F19"/><path d="M328 132H192c-22.1 0-40 17.9-40 40v48c0 61.8 46.7 112 104 112s104-50.2 104-112v-56C360 146.4 345.6 132 328 132z" fill="#FFE1B2"/><path d="M312 44H208c-15 0-27.7 10.4-31.1 24.4C149.4 72 128 95.6 128 124v40c0 20.6 8.8 39.9 24 53.5v-45.5c0-22.1 17.9-40 40-40h136c17.6 0 32 14.4 32 32v53.5c15.3-13.7 24-32.9 24-53.5v-48C384 76.3 351.7 44 312 44z" fill="#7E5449"/></svg>