<?xml version="1.0" encoding="iso-8859-1"?>
<!-- Generator: Adobe Illustrator 19.0.0, SVG Export Plug-In . SVG Version: 6.00 Build 0)  -->
<svg version="1.1" id="Capa_1" xmlns="http://www.w3.org/2000/svg" xmlns:xlink="http://www.w3.org/1999/xlink" x="0px" y="0px"
	 viewBox="0 0 512 512" style="enable-background:new 0 0 512 512;" xml:space="preserve">
<path style="fill:#54FEBD;" d="M336,128c0,44.184-80,176-80,176s-80-131.816-80-176s35.816-80,80-80S336,83.816,336,128z"/>
<g>
	<path style="fill:#1D1B4C;" d="M256,512c-1.256,0-2.52-0.296-3.664-0.888L132,449L11.664,511.112
		c-2.48,1.272-5.448,1.168-7.832-0.28C1.456,509.376,0,506.792,0,504V216c0-2.992,1.672-5.736,4.336-7.112l124-64
		c2.296-1.184,5.032-1.184,7.336,0l37.84,19.52c3.928,2.024,5.472,6.848,3.44,10.776c-2.024,3.92-6.856,5.464-10.776,3.44L132,161
		L16,220.872v269.992l112.336-57.976c2.296-1.184,5.04-1.184,7.336,0L256,495l120.336-62.104c2.296-1.184,5.04-1.184,7.336,0
		L496,490.864V220.872L380,161l-34.168,17.624c-3.928,2.016-8.752,0.48-10.776-3.44c-2.024-3.928-0.488-8.752,3.44-10.776
		l37.84-19.52c2.304-1.184,5.04-1.184,7.336,0l124,64c2.656,1.376,4.328,4.12,4.328,7.112v288c0,2.792-1.456,5.376-3.832,6.832
		c-2.4,1.448-5.36,1.544-7.832,0.28L380,449l-120.336,62.104C258.52,511.704,257.256,512,256,512z"/>
	<path style="fill:#1D1B4C;" d="M132,448c-4.416,0-8-3.584-8-8V152c0-4.416,3.584-8,8-8s8,3.584,8,8v288
		C140,444.416,136.416,448,132,448z"/>
	<path style="fill:#1D1B4C;" d="M380,448c-4.416,0-8-3.584-8-8V152c0-4.416,3.584-8,8-8s8,3.584,8,8v288
		C388,444.416,384.416,448,380,448z"/>
	<path style="fill:#1D1B4C;" d="M256,512c-4.416,0-8-3.584-8-8V312c0-4.416,3.584-8,8-8c4.416,0,8,3.584,8,8v192
		C264,508.416,260.416,512,256,512z"/>
	<path style="fill:#1D1B4C;" d="M256,272c-2.8,0-5.384-1.464-6.84-3.848C245.848,262.688,168,133.896,168,88c0-48.52,39.48-88,88-88
		s88,39.48,88,88c0,45.896-77.848,174.688-81.16,180.152C261.384,270.536,258.8,272,256,272z M256,16c-39.696,0-72,32.304-72,72
		c0,31.256,46.96,117.712,72,160.376C281.04,205.712,328,119.248,328,88C328,48.304,295.696,16,256,16z"/>
	<path style="fill:#1D1B4C;" d="M256,136c-26.472,0-48-21.528-48-48s21.528-48,48-48s48,21.528,48,48S282.472,136,256,136z M256,56
		c-17.648,0-32,14.352-32,32s14.352,32,32,32s32-14.352,32-32S273.648,56,256,56z"/>
</g>
<g>
</g>
<g>
</g>
<g>
</g>
<g>
</g>
<g>
</g>
<g>
</g>
<g>
</g>
<g>
</g>
<g>
</g>
<g>
</g>
<g>
</g>
<g>
</g>
<g>
</g>
<g>
</g>
<g>
</g>
</svg>
