<?xml version="1.0" encoding="iso-8859-1"?>
<!-- Generator: Adobe Illustrator 19.0.0, SVG Export Plug-In . SVG Version: 6.00 Build 0)  -->
<svg version="1.1" id="Capa_1" xmlns="http://www.w3.org/2000/svg" xmlns:xlink="http://www.w3.org/1999/xlink" x="0px" y="0px"
	 viewBox="0 0 512.007 512.007" style="enable-background:new 0 0 512.007 512.007;" xml:space="preserve">
<polygon style="fill:#54FEBD;" points="216.003,68.003 216.003,244.003 160.003,244.003 256.003,348.003 352.003,244.003 
	296.003,244.003 296.003,68.003 "/>
<g>
	<path style="fill:#1D1B4C;" d="M504.003,492.003h-496c-4.416,0-8-3.584-8-8v-320c0-4.416,3.584-8,8-8h208c4.416,0,8,3.584,8,8
		s-3.584,8-8,8h-200v304h480v-304h-200c-4.416,0-8-3.584-8-8s3.584-8,8-8h208c4.416,0,8,3.584,8,8v320
		C512.003,488.419,508.419,492.003,504.003,492.003z"/>
	<path style="fill:#1D1B4C;" d="M256.003,380.003c-1.832,0-3.656-0.624-5.144-1.872l-248-208c-2.576-2.16-3.528-5.704-2.376-8.864
		c1.152-3.16,4.16-5.264,7.52-5.264h208c4.416,0,8,3.584,8,8s-3.584,8-8,8H29.995l226.008,189.56l226.016-189.56H296.003
		c-4.416,0-8-3.584-8-8s3.584-8,8-8h208c3.36,0,6.368,2.104,7.52,5.264c1.152,3.16,0.2,6.704-2.376,8.864l-248,208
		C259.659,379.379,257.835,380.003,256.003,380.003z"/>
	<path style="fill:#1D1B4C;" d="M504.003,492.003h-496c-3.432,0-6.488-2.192-7.584-5.448s0.008-6.848,2.744-8.92l200.32-152
		c3.512-2.672,8.544-1.984,11.208,1.536c2.664,3.52,1.984,8.536-1.536,11.208L31.779,476.003h448.448L298.851,338.379
		c-3.52-2.664-4.208-7.688-1.536-11.208c2.68-3.512,7.688-4.208,11.208-1.536l200.32,152c2.736,2.072,3.84,5.664,2.744,8.92
		C510.491,489.811,507.435,492.003,504.003,492.003z"/>
	<path style="fill:#1D1B4C;" d="M256.003,316.003c-2.232,0-4.36-0.936-5.88-2.576l-96-104c-2.16-2.336-2.72-5.72-1.448-8.632
		s4.152-4.792,7.328-4.792h48v-168c0-4.416,3.584-8,8-8s8,3.584,8,8v176c0,4.416-3.584,8-8,8h-37.728l77.728,84.208l77.728-84.208
		h-37.728c-4.416,0-8-3.584-8-8v-176c0-4.416,3.584-8,8-8s8,3.584,8,8v168h48c3.176,0,6.056,1.88,7.328,4.792
		c1.272,2.912,0.704,6.296-1.448,8.632l-96,104C260.371,315.067,258.235,316.003,256.003,316.003z"/>
	<path style="fill:#1D1B4C;" d="M256.003,132.003c-2.08,0-4.16-0.88-5.68-2.32c-1.44-1.52-2.32-3.6-2.32-5.68s0.88-4.16,2.32-5.68
		c3.04-2.96,8.4-2.96,11.36,0c1.44,1.52,2.32,3.6,2.32,5.68s-0.88,4.16-2.32,5.68C260.163,131.123,258.083,132.003,256.003,132.003z
		"/>
	<path style="fill:#1D1B4C;" d="M256.003,100.003c-4.416,0-8-3.584-8-8v-64c0-4.416,3.584-8,8-8s8,3.584,8,8v64
		C264.003,96.419,260.419,100.003,256.003,100.003z"/>
</g>
<g>
</g>
<g>
</g>
<g>
</g>
<g>
</g>
<g>
</g>
<g>
</g>
<g>
</g>
<g>
</g>
<g>
</g>
<g>
</g>
<g>
</g>
<g>
</g>
<g>
</g>
<g>
</g>
<g>
</g>
</svg>
