<svg xmlns="http://www.w3.org/2000/svg" style="display: none;"><symbol id="check" viewBox="0 0 444.237 444.237"><title>check</title><path style="fill:#FFFFFF;" d="M376.471,439.859H45.176C20.262,439.859,0,419.597,0,394.682V93.506 c0-24.915,20.262-45.176,45.176-45.176h331.294c24.915,0,45.176,20.262,45.176,45.176v301.176 C421.647,419.597,401.385,439.859,376.471,439.859z M60.235,379.623h301.176V108.565H60.235V379.623z"/><path style="fill:#AC2200;" d="M218.353,349.506c-10.963,0-21.414-4.781-28.589-13.146L99.411,230.948 c-13.53-15.789-11.701-39.552,4.088-53.082c15.782-13.545,39.544-11.716,53.09,4.081l59.068,68.909L402.342,25.741 c28.898-40.478,59.144-18.063,30.118,22.588l-183.477,285.41c-6.731,9.419-17.416,15.217-28.973,15.729 C219.452,349.491,218.903,349.506,218.353,349.506z"/></symbol><symbol id="yelp" viewBox="0 0 512.001 512.001"><title>yelp</title><g> <g> <path d="M483.445,138.782C452.134,78.029,399.04,33.106,333.942,12.287C268.848-8.53,199.537-2.753,138.782,28.556 C78.03,59.867,33.107,112.961,12.287,178.06C-8.532,243.157-2.754,312.466,28.556,373.218 c31.31,60.753,84.405,105.676,149.503,126.495c25.683,8.214,52.015,12.287,78.225,12.286 c40.223-0.001,80.151-9.598,116.935-28.555c60.754-31.31,105.677-84.405,126.496-149.503 C520.533,268.844,514.755,199.535,483.445,138.782z M484.321,329.02c-19.503,60.986-61.59,110.728-118.505,140.06 c-56.916,29.333-121.849,34.746-182.834,15.241C121.995,464.818,72.254,422.731,42.92,365.816 C13.588,308.9,8.174,243.969,27.679,182.982C47.184,121.995,89.27,72.254,146.186,42.922 c34.464-17.762,71.863-26.753,109.549-26.753c24.552,0,49.227,3.817,73.284,11.512c60.987,19.503,110.728,61.59,140.06,118.505 C498.412,203.102,503.824,268.033,484.321,329.02z" fill="#F57E2F"/> </g> </g><g> <g> <path d="M251.738,213.86l-18.191-71.919c-0.906-3.589-4.133-6.1-7.832-6.1c-5.266,0-9.125,4.956-7.833,10.061l17.948,70.956 l-87.884-103.497c-2.693-3.171-3.496-6.756-3.497-8.577c0-0.134,0.004-0.258,0.013-0.373l52.807-27.215 c1.425,0.868,4.172,3.702,5.266,8.03l5.392,21.317c0.907,3.587,4.134,6.099,7.833,6.099c5.266,0,9.125-4.956,7.833-10.061 l-5.392-21.316c-2.147-8.486-7.909-15.943-14.68-18.996c-4.32-1.949-8.784-1.947-12.566,0.001l-54.989,28.34 c-3.782,1.95-6.372,5.584-7.293,10.234c-0.256,1.295-0.381,2.645-0.38,4.026c0,6.392,2.674,13.465,7.333,18.952l88.527,104.255 c4.891,5.761,10.095,7.851,14.551,7.851c2.315,0,4.43-0.565,6.193-1.473C250.05,231.798,254.554,224.994,251.738,213.86z" fill="#F57E2F"/> </g> </g><g> <g> <path d="M232.075,259.904c-0.063-0.387-0.139-0.77-0.228-1.148c-1.434-6.071-6.165-10.779-12.331-12.15l-81.298-18.077 c-5.291-1.175-10.803,0.343-14.744,4.065c-3.295,3.111-5.115,7.407-5.114,11.857c0,0.873,0.07,1.753,0.213,2.631l9.96,61.054 c0.873,5.351,4.331,9.904,9.251,12.181c2.184,1.01,4.521,1.51,6.853,1.51c2.923,0,5.836-0.788,8.416-2.342l71.339-42.978 c4.973-2.996,7.9-8.278,7.9-13.937C232.292,261.687,232.22,260.797,232.075,259.904z M216.055,262.663l-71.34,42.978 c-0.056,0.033-0.07,0.042-0.143,0.008c-0.075-0.033-0.079-0.051-0.088-0.115l-9.96-61.054c-0.004-0.022-0.006-0.037-0.006-0.051 c0-0.029,0.012-0.05,0.053-0.088c0.059-0.059,0.073-0.055,0.14-0.039l81.298,18.077c0.047,0.011,0.079,0.021,0.089,0.022 c0.031,0.06,0.05,0.177,0.055,0.193C216.152,262.593,216.127,262.619,216.055,262.663z" fill="#F57E2F"/> </g> </g><g> <g> <path d="M284.564,373.528l-18.83-81.128c-1.518-6.536-6.783-11.419-13.415-12.438c-0.009-0.001-0.017-0.003-0.027-0.004 c-0.979-0.149-1.953-0.212-2.917-0.183c-4.627,0.121-8.962,2.197-11.959,5.734c0,0-0.001,0.001-0.002,0.002v0.001 c-0.526,0.621-1.01,1.286-1.447,1.993c-0.06,0.096-0.119,0.194-0.177,0.293l-42.314,71.733c-1.506,2.553-2.266,5.418-2.266,8.291 c0.001,2.381,0.523,4.766,1.575,6.987c2.322,4.898,6.907,8.313,12.265,9.137l61.145,9.395c0.83,0.127,1.66,0.191,2.485,0.191 c4.503,0,8.842-1.865,11.957-5.222c2.829-3.051,4.351-7.017,4.353-11.083C284.989,375.995,284.85,374.755,284.564,373.528z M268.784,377.319c-0.056,0.06-0.069,0.057-0.137,0.047l-61.143-9.395c-0.064-0.01-0.081-0.013-0.116-0.087 c-0.015-0.032-0.023-0.053-0.023-0.071c0-0.023,0.011-0.042,0.029-0.074l42.314-71.733c0.024-0.041,0.043-0.066,0.047-0.077 c0.065-0.01,0.182,0.006,0.199,0.006v0.001c0,0,0.017,0.031,0.037,0.113l18.83,81.128c0.005,0.025,0.01,0.041,0.01,0.057 C268.831,377.259,268.819,377.28,268.784,377.319z" fill="#F57E2F"/> </g> </g><g> <g> <path d="M389.445,273.457c-2.642-4.734-7.442-7.838-12.845-8.305l-82.975-7.161c-6.682-0.563-12.955,2.923-15.974,8.916 c-0.242,0.48-0.459,0.967-0.65,1.46c-2.199,5.66-1.094,12.056,2.994,16.681l55.147,62.412c3.121,3.533,7.575,5.513,12.218,5.513 c0.696,0,1.397-0.044,2.101-0.135c5.375-0.695,10.041-4.001,12.479-8.842l27.829-55.248c1.167-2.316,1.747-4.833,1.746-7.346 C391.515,278.66,390.822,275.925,389.445,273.457z M375.335,281.478l-27.829,55.248c-0.03,0.06-0.037,0.073-0.118,0.084 c-0.079,0.016-0.092,0-0.136-0.051l-55.147-62.412c-0.031-0.037-0.05-0.062-0.057-0.067c0.009-0.067,0.063-0.171,0.068-0.189 c0,0,0.032-0.009,0.12,0.001l82.973,7.16c0.066,0.006,0.083,0.008,0.124,0.08c0.018,0.034,0.027,0.056,0.027,0.075 C375.359,281.429,375.351,281.448,375.335,281.478z" fill="#F57E2F"/> </g> </g><g> <g> <path d="M372.426,182.44l-43.944-43.538c-3.851-3.816-9.324-5.47-14.644-4.418c-5.319,1.05-9.754,4.656-11.867,9.649 l-32.451,76.701c-0.876,2.07-1.302,4.236-1.304,6.38c-0.001,4.258,1.675,8.425,4.845,11.567c1.862,1.846,4.074,3.172,6.446,3.944 c1.616,0.527,3.305,0.795,5.01,0.795c2.14,0,4.301-0.423,6.364-1.292c0.053-0.023,0.107-0.046,0.161-0.069l76.397-33.161 c4.973-2.158,8.538-6.628,9.539-11.955c0.19-1.004,0.282-2.013,0.282-3.014C377.26,189.715,375.551,185.536,372.426,182.44z M361.093,194.058c-0.015,0.081-0.029,0.087-0.091,0.113l-76.397,33.161c-0.044,0.018-0.074,0.029-0.084,0.034 c-0.059-0.03-0.143-0.112-0.157-0.122c0-0.001,0.005-0.037,0.038-0.115l32.451-76.7c0.025-0.06,0.031-0.075,0.112-0.093 c0.085-0.015,0.093-0.004,0.14,0.043l43.945,43.538c0.033,0.033,0.049,0.049,0.049,0.087 C361.1,194.021,361.098,194.037,361.093,194.058z" fill="#F57E2F"/> </g> </g></symbol><symbol id="facebook" viewBox="0 0 512.001 512.001"><title>facebook</title><path d="M437.02,74.981C388.668,26.628,324.38,0,256.001,0C188.021,0,123.05,26.912,74.981,74.981 C26.629,123.333,0.001,187.621,0.001,256c0,53.306,16.227,104.399,46.926,147.757c30.02,42.398,71.526,74.321,120.03,92.318 c3.258,1.209,7.025,0.223,9.267-2.703c1.111-1.452,1.63-3.274,1.63-5.102V342.232c0-4.465-3.62-8.084-8.084-8.084h-67.368v-59.284 h67.368c4.465,0,8.084-3.62,8.084-8.084V256c0-70.34,66.739-132.042,142.821-132.042h35.032v59.284h-35.032 c-22.814,0-43.559,6.567-58.413,18.489c-16.436,13.192-25.124,31.958-25.124,54.269v10.779c0,4.465,3.62,8.084,8.084,8.084h31.872 c4.465,0,8.084-3.62,8.084-8.084c0-4.465-3.62-8.084-8.084-8.084h-23.788V256c0-41.768,36.291-56.589,67.368-56.589h43.116 c4.465,0,8.084-3.62,8.084-8.084v-75.453c0-4.465-3.62-8.084-8.084-8.084h-43.116c-39.518,0-79.573,15.72-109.895,43.129 c-31.659,28.619-49.095,65.937-49.095,105.082v2.695H94.316c-4.465,0-8.084,3.62-8.084,8.084v75.453 c0,4.465,3.62,8.084,8.084,8.084h67.368v126.248C74.182,439.076,16.169,351.887,16.169,256 c0-132.244,107.588-239.832,239.83-239.832c132.098,0,239.833,107.734,239.833,239.833c0,132.243-107.588,239.83-239.832,239.83 c-0.885,0-1.782-0.005-2.695-0.017V350.316H363.79c4.465,0,8.084-3.62,8.084-8.084v-75.453c0-4.465-3.62-8.084-8.084-8.084 h-47.317c-4.465,0-8.084,3.62-8.084,8.084c0,4.465,3.62,8.084,8.084,8.084h39.233v59.284H245.222c-4.465,0-8.084,3.62-8.084,8.084 v161.437c0,4.325,3.408,7.891,7.729,8.077c4.005,0.171,7.648,0.255,11.135,0.255c68.379,0,132.667-26.628,181.019-74.981 c48.069-48.07,74.981-113.04,74.981-181.021C512.001,187.621,485.372,123.333,437.02,74.981z" fill="#F57E2F"/></symbol><symbol id="smartphone" viewBox="0 0 512 512"><title>smartphone</title><path style="fill:#707384;" d="M361.931,0H150.069c-14.626,0-26.483,11.857-26.483,26.483v459.034 c0,14.626,11.857,26.483,26.483,26.483h211.862c14.626,0,26.483-11.857,26.483-26.483V26.483C388.414,11.857,376.557,0,361.931,0z M220.69,35.31c0-4.875,3.953-8.828,8.828-8.828h52.966c4.875,0,8.828,3.953,8.828,8.828l0,0c0,4.875-3.953,8.828-8.828,8.828 h-52.966C224.642,44.138,220.69,40.185,220.69,35.31L220.69,35.31z M194.207,26.483c4.875,0,8.828,3.953,8.828,8.828 s-3.953,8.828-8.828,8.828s-8.828-3.953-8.828-8.828S189.332,26.483,194.207,26.483z M256,494.345 c-9.751,0-17.655-7.905-17.655-17.655c0-9.751,7.904-17.655,17.655-17.655c9.751,0,17.655,7.904,17.655,17.655 C273.655,486.44,265.751,494.345,256,494.345z M370.759,335.448v105.931H141.241V335.448V70.621h229.517V335.448z"/><path style="fill:#63AFDB;" d="M141.241,335.448h70.621c0-4.875,3.953-8.828,8.828-8.828s8.828,3.953,8.828,8.828h17.655 c0-4.875,3.953-8.828,8.828-8.828s8.828,3.953,8.828,8.828h17.655c0-4.875,3.953-8.828,8.828-8.828s8.828,3.953,8.828,8.828h70.621 V70.621H141.241V335.448z M300.138,114.759c0-4.875,3.953-8.828,8.828-8.828h35.31c4.875,0,8.828,3.953,8.828,8.828v35.31 c0,4.875-3.953,8.828-8.828,8.828h-35.31c-4.875,0-8.828-3.953-8.828-8.828V114.759z M300.138,185.379 c0-4.875,3.953-8.828,8.828-8.828h35.31c4.875,0,8.828,3.953,8.828,8.828v35.31c0,4.875-3.953,8.828-8.828,8.828h-35.31 c-4.875,0-8.828-3.953-8.828-8.828V185.379z M300.138,256c0-4.875,3.953-8.828,8.828-8.828h35.31c4.875,0,8.828,3.953,8.828,8.828 v35.31c0,4.875-3.953,8.828-8.828,8.828h-35.31c-4.875,0-8.828-3.953-8.828-8.828V256z M229.517,114.759 c0-4.875,3.953-8.828,8.828-8.828h35.31c4.875,0,8.828,3.953,8.828,8.828v35.31c0,4.875-3.953,8.828-8.828,8.828h-35.31 c-4.875,0-8.828-3.953-8.828-8.828V114.759z M229.517,185.379c0-4.875,3.953-8.828,8.828-8.828h35.31 c4.875,0,8.828,3.953,8.828,8.828v35.31c0,4.875-3.953,8.828-8.828,8.828h-35.31c-4.875,0-8.828-3.953-8.828-8.828V185.379z M229.517,256c0-4.875,3.953-8.828,8.828-8.828h35.31c4.875,0,8.828,3.953,8.828,8.828v35.31c0,4.875-3.953,8.828-8.828,8.828 h-35.31c-4.875,0-8.828-3.953-8.828-8.828V256z M158.897,114.759c0-4.875,3.953-8.828,8.828-8.828h35.31 c4.875,0,8.828,3.953,8.828,8.828v35.31c0,4.875-3.953,8.828-8.828,8.828h-35.31c-4.875,0-8.828-3.953-8.828-8.828V114.759z M158.897,185.379c0-4.875,3.953-8.828,8.828-8.828h35.31c4.875,0,8.828,3.953,8.828,8.828v35.31c0,4.875-3.953,8.828-8.828,8.828 h-35.31c-4.875,0-8.828-3.953-8.828-8.828V185.379z M158.897,256c0-4.875,3.953-8.828,8.828-8.828h35.31 c4.875,0,8.828,3.953,8.828,8.828v35.31c0,4.875-3.953,8.828-8.828,8.828h-35.31c-4.875,0-8.828-3.953-8.828-8.828V256z"/><path style="fill:#468CBE;" d="M291.31,344.276c-4.875,0-8.828-3.953-8.828-8.828h-17.655c0,4.875-3.953,8.828-8.828,8.828 s-8.828-3.953-8.828-8.828h-17.655c0,4.875-3.953,8.828-8.828,8.828s-8.828-3.953-8.828-8.828h-70.621v105.931h229.517V335.448 h-70.621C300.138,340.323,296.185,344.276,291.31,344.276z M211.862,406.069c0,4.875-3.953,8.828-8.828,8.828h-35.31 c-4.875,0-8.828-3.953-8.828-8.828v-35.31c0-4.875,3.953-8.828,8.828-8.828h35.31c4.875,0,8.828,3.953,8.828,8.828V406.069z M282.483,406.069c0,4.875-3.953,8.828-8.828,8.828h-35.31c-4.875,0-8.828-3.953-8.828-8.828v-35.31 c0-4.875,3.953-8.828,8.828-8.828h35.31c4.875,0,8.828,3.953,8.828,8.828V406.069z M308.966,361.931h35.31 c4.875,0,8.828,3.953,8.828,8.828v35.31c0,4.875-3.953,8.828-8.828,8.828h-35.31c-4.875,0-8.828-3.953-8.828-8.828v-35.31 C300.138,365.884,304.09,361.931,308.966,361.931z"/><g> <path style="fill:#464655;" d="M229.517,44.138h52.966c4.875,0,8.828-3.953,8.828-8.828l0,0c0-4.875-3.953-8.828-8.828-8.828 h-52.966c-4.875,0-8.828,3.953-8.828,8.828l0,0C220.69,40.185,224.642,44.138,229.517,44.138z"/> <circle style="fill:#464655;" cx="194.207" cy="35.31" r="8.828"/> <circle style="fill:#464655;" cx="256" cy="476.69" r="17.655"/> </g><path style="fill:#63AFDB;" d="M273.655,361.931h-35.31c-4.875,0-8.828,3.953-8.828,8.828v35.31c0,4.875,3.953,8.828,8.828,8.828 h35.31c4.875,0,8.828-3.953,8.828-8.828v-35.31C282.483,365.884,278.53,361.931,273.655,361.931z M256,406.069 c-9.751,0-17.655-7.905-17.655-17.655c0-9.751,7.904-17.655,17.655-17.655c9.751,0,17.655,7.904,17.655,17.655 C273.655,398.164,265.751,406.069,256,406.069z"/><path style="fill:#FF6469;" d="M300.138,406.069c0,4.875,3.953,8.828,8.828,8.828h35.31c4.875,0,8.828-3.953,8.828-8.828v-35.31 c0-4.875-3.953-8.828-8.828-8.828h-35.31c-4.875,0-8.828,3.953-8.828,8.828V406.069z"/><path style="fill:#00DCCD;" d="M203.034,361.931h-35.31c-4.875,0-8.828,3.953-8.828,8.828v35.31c0,4.875,3.953,8.828,8.828,8.828 h35.31c4.875,0,8.828-3.953,8.828-8.828v-35.31C211.862,365.884,207.91,361.931,203.034,361.931z"/><path style="fill:#FFDC69;" d="M238.345,300.138h35.31c4.875,0,8.828-3.953,8.828-8.828V256c0-4.875-3.953-8.828-8.828-8.828h-35.31 c-4.875,0-8.828,3.953-8.828,8.828v35.31C229.517,296.185,233.47,300.138,238.345,300.138z"/><path style="fill:#FFFFFF;" d="M308.966,300.138h35.31c4.875,0,8.828-3.953,8.828-8.828V256c0-4.875-3.953-8.828-8.828-8.828h-35.31 c-4.875,0-8.828,3.953-8.828,8.828v35.31C300.138,296.185,304.09,300.138,308.966,300.138z M308.966,273.655 c0-4.875,3.953-8.828,8.828-8.828h17.655c4.875,0,8.828,3.953,8.828,8.828l0,0c0,4.875-3.953,8.828-8.828,8.828h-17.655 C312.918,282.483,308.966,278.53,308.966,273.655L308.966,273.655z"/><path style="fill:#468CBE;" d="M167.724,300.138h35.31c4.875,0,8.828-3.953,8.828-8.828V256c0-4.875-3.953-8.828-8.828-8.828h-35.31 c-4.875,0-8.828,3.953-8.828,8.828v35.31C158.897,296.185,162.849,300.138,167.724,300.138z M167.724,273.655 c0-4.875,3.953-8.828,8.828-8.828h17.655c4.875,0,8.828,3.953,8.828,8.828l0,0c0,4.875-3.953,8.828-8.828,8.828h-17.655 C171.677,282.483,167.724,278.53,167.724,273.655L167.724,273.655z"/><path style="fill:#464655;" d="M238.345,229.517h35.31c4.875,0,8.828-3.953,8.828-8.828v-35.31c0-4.875-3.953-8.828-8.828-8.828 h-35.31c-4.875,0-8.828,3.953-8.828,8.828v35.31C229.517,225.565,233.47,229.517,238.345,229.517z M238.345,203.034 c0-4.875,3.953-8.828,8.828-8.828h17.655c4.875,0,8.828,3.953,8.828,8.828l0,0c0,4.875-3.953,8.828-8.828,8.828h-17.655 C242.297,211.862,238.345,207.91,238.345,203.034L238.345,203.034z"/><path style="fill:#FFA055;" d="M308.966,229.517h35.31c4.875,0,8.828-3.953,8.828-8.828v-35.31c0-4.875-3.953-8.828-8.828-8.828 h-35.31c-4.875,0-8.828,3.953-8.828,8.828v35.31C300.138,225.565,304.09,229.517,308.966,229.517z"/><path style="fill:#A0D778;" d="M167.724,229.517h35.31c4.875,0,8.828-3.953,8.828-8.828v-35.31c0-4.875-3.953-8.828-8.828-8.828 h-35.31c-4.875,0-8.828,3.953-8.828,8.828v35.31C158.897,225.565,162.849,229.517,167.724,229.517z M185.379,185.379 c9.751,0,17.655,7.904,17.655,17.655c0,9.75-7.904,17.655-17.655,17.655c-9.751,0-17.655-7.905-17.655-17.655 C167.724,193.283,175.628,185.379,185.379,185.379z"/><path style="fill:#FF6469;" d="M238.345,158.897h35.31c4.875,0,8.828-3.953,8.828-8.828v-35.31c0-4.875-3.953-8.828-8.828-8.828 h-35.31c-4.875,0-8.828,3.953-8.828,8.828v35.31C229.517,154.944,233.47,158.897,238.345,158.897z"/><path style="fill:#00DCCD;" d="M308.966,158.897h35.31c4.875,0,8.828-3.953,8.828-8.828v-35.31c0-4.875-3.953-8.828-8.828-8.828 h-35.31c-4.875,0-8.828,3.953-8.828,8.828v35.31C300.138,154.944,304.09,158.897,308.966,158.897z M326.621,114.759 c9.751,0,17.655,7.904,17.655,17.655c0,9.75-7.904,17.655-17.655,17.655c-9.751,0-17.655-7.905-17.655-17.655 C308.966,122.663,316.87,114.759,326.621,114.759z"/><g> <path style="fill:#FFDC69;" d="M167.724,158.897h35.31c4.875,0,8.828-3.953,8.828-8.828v-35.31c0-4.875-3.953-8.828-8.828-8.828 h-35.31c-4.875,0-8.828,3.953-8.828,8.828v35.31C158.897,154.944,162.849,158.897,167.724,158.897z"/> <circle style="fill:#FFDC69;" cx="185.379" cy="203.034" r="17.655"/> <circle style="fill:#FFDC69;" cx="256" cy="388.414" r="17.655"/> </g><circle style="fill:#FF6469;" cx="326.621" cy="132.414" r="17.655"/><path style="fill:#468CBE;" d="M247.172,211.862h17.655c4.875,0,8.828-3.953,8.828-8.828l0,0c0-4.875-3.953-8.828-8.828-8.828 h-17.655c-4.875,0-8.828,3.953-8.828,8.828l0,0C238.345,207.91,242.297,211.862,247.172,211.862z"/><path style="fill:#FF6469;" d="M317.793,282.483h17.655c4.875,0,8.828-3.953,8.828-8.828l0,0c0-4.875-3.953-8.828-8.828-8.828 h-17.655c-4.875,0-8.828,3.953-8.828,8.828l0,0C308.966,278.53,312.918,282.483,317.793,282.483z"/><path style="fill:#FFFFFF;" d="M176.552,282.483h17.655c4.875,0,8.828-3.953,8.828-8.828l0,0c0-4.875-3.953-8.828-8.828-8.828 h-17.655c-4.875,0-8.828,3.953-8.828,8.828l0,0C167.724,278.53,171.677,282.483,176.552,282.483z"/><circle style="fill:#464655;" cx="220.69" cy="335.448" r="8.828"/><g> <circle style="fill:#FFFFFF;" cx="256" cy="335.448" r="8.828"/> <circle style="fill:#FFFFFF;" cx="291.31" cy="335.448" r="8.828"/> </g></symbol><symbol id="technology" viewBox="0 0 512.014 512.014"><title>technology</title><path style="fill:#54FEBD;" d="M511.957,422.723l-21.361,21.441c-23.841,23.841-56.722,37.521-90.403,37.761 c-43.761,0.32-82.163-26.641-117.364-49.522c-45.041-29.281-86.563-64.082-123.284-103.283 c-40.881-43.761-79.923-96.163-107.363-149.525c-21.201-41.201-18.321-92.003,7.44-130.564c4.72-7.04,10.16-13.6,16.081-19.601 L97.224,7.99l108.163,108.243l-31.921,31.841c-8.64,8.72-10.16,22.481-3.2,32.641c45.921,66.162,102.803,123.044,169.045,168.885 c10.08,6.96,23.921,5.52,32.561-3.2l31.921-31.841L511.957,422.723z"/><g> <path style="fill:#1D1B4C;" d="M369.305,512.006c-43.185,0.008-81.083-24.761-114.548-46.625l-6.44-4.192 c-45.569-29.625-87.539-64.802-124.74-104.547C79.448,309.48,40.862,255.734,14.926,205.3 c-22.385-43.505-19.289-97.923,7.896-138.62c4.992-7.464,10.736-14.464,17.089-20.809L75.992,9.798 c13.072-13.064,34.329-13.064,47.385,0l72.146,72.122c6.328,6.328,9.816,14.744,9.816,23.689s-3.488,17.361-9.824,23.689 l-46.537,46.521c-5.984,5.984-6.96,15.6-2.264,22.377c45.329,65.45,101.499,121.604,166.957,166.909 c6.784,4.696,16.401,3.72,22.393-2.264l46.537-46.521c13.072-13.064,34.329-13.072,47.393-0.008l72.146,72.122 c6.328,6.328,9.816,14.744,9.816,23.697c0,8.944-3.488,17.361-9.816,23.689l-36.081,36.073 c-25.265,25.257-60.258,39.873-96.003,40.121C369.801,512.006,369.553,512.006,369.305,512.006z M99.696,15.998 c-4.488,0-8.968,1.712-12.384,5.12L51.231,57.192C45.615,62.8,40.534,68.984,36.126,75.568 c-24.001,35.937-26.745,83.987-6.976,122.42c25.281,49.146,62.97,101.603,106.107,147.709 c36.321,38.817,77.298,73.154,121.78,102.067l6.472,4.216c33.129,21.649,67.378,44.025,105.779,44.025c0.224,0,0.432,0,0.656,0 c31.585-0.208,62.49-13.128,84.803-35.433l36.081-36.073c3.312-3.304,5.128-7.704,5.128-12.384c0-4.672-1.824-9.072-5.128-12.376 l-72.146-72.122c-6.832-6.816-17.945-6.824-24.769,0.008l-46.537,46.521l0,0c-11.552,11.552-29.553,13.288-42.809,4.112 c-67.05-46.401-124.588-103.915-171.005-170.957c-9.176-13.24-7.456-31.241,4.104-42.801l46.537-46.521 c3.312-3.312,5.136-7.704,5.136-12.376s-1.824-9.072-5.128-12.376l-72.146-72.122C108.665,17.703,104.176,15.998,99.696,15.998z"/> <path style="fill:#1D1B4C;" d="M50.495,195.004c-2.904,0-5.704-1.576-7.12-4.336c-4.232-8.224-7.344-17.089-9.24-26.321 c-1.848-9.04-2.52-18.321-1.992-27.593c0.256-4.416,4.08-7.76,8.448-7.528c4.408,0.248,7.784,4.032,7.528,8.44 c-0.456,7.896,0.12,15.8,1.688,23.481c1.608,7.808,4.224,15.272,7.792,22.201c2.024,3.928,0.48,8.76-3.456,10.776 C52.975,194.724,51.727,195.004,50.495,195.004z"/> <path style="fill:#1D1B4C;" d="M239.949,119.994c-4.416,0-8-3.576-8-8V95.993c0-4.424,3.584-8,8-8s8,3.576,8,8v16.001 C247.949,116.418,244.365,119.994,239.949,119.994z"/> <path style="fill:#1D1B4C;" d="M239.949,167.995c-4.416,0-8-3.576-8-8v-16.001c0-4.424,3.584-8,8-8s8,3.576,8,8v16.001 C247.949,164.419,244.365,167.995,239.949,167.995z"/> <path style="fill:#1D1B4C;" d="M415.954,279.999h-16.001c-4.416,0-8-3.576-8-8s3.584-8,8-8h16.001c4.416,0,8,3.576,8,8 S420.37,279.999,415.954,279.999z"/> <path style="fill:#1D1B4C;" d="M367.953,279.999h-16.001c-4.416,0-8-3.576-8-8s3.584-8,8-8h16.001c4.416,0,8,3.576,8,8 S372.369,279.999,367.953,279.999z"/> <path style="fill:#1D1B4C;" d="M353.088,166.851c-2.048,0-4.096-0.784-5.656-2.344c-3.128-3.128-3.128-8.184,0-11.312 l11.312-11.312c3.128-3.128,8.184-3.128,11.312,0c3.128,3.128,3.128,8.184,0,11.312l-11.312,11.312 C357.184,166.075,355.136,166.851,353.088,166.851z"/> <path style="fill:#1D1B4C;" d="M319.143,200.804c-2.048,0-4.096-0.784-5.656-2.344c-3.128-3.128-3.128-8.184,0-11.312 l11.312-11.312c3.128-3.128,8.184-3.128,11.312,0c3.128,3.128,3.128,8.184,0,11.312l-11.312,11.312 C323.239,200.02,321.191,200.804,319.143,200.804z"/> <path style="fill:#1D1B4C;" d="M319.543,87.833c-1.016,0-2.056-0.192-3.056-0.608c-4.08-1.696-6.016-6.376-4.328-10.456 l6.128-14.784c1.688-4.08,6.376-6.016,10.456-4.328c4.08,1.696,6.016,6.376,4.328,10.456l-6.128,14.784 C325.663,85.969,322.687,87.833,319.543,87.833z"/> <path style="fill:#1D1B4C;" d="M301.175,132.178c-1.016,0-2.056-0.192-3.056-0.608c-4.08-1.688-6.016-6.368-4.328-10.456 l6.12-14.784c1.68-4.08,6.352-6.016,10.456-4.328c4.08,1.688,6.016,6.368,4.328,10.456l-6.12,14.784 C307.295,130.314,304.319,132.178,301.175,132.178z"/> <path style="fill:#1D1B4C;" d="M282.806,176.516c-1.016,0-2.056-0.192-3.056-0.608c-4.08-1.696-6.016-6.376-4.328-10.456 l6.128-14.784c1.688-4.08,6.376-6.024,10.456-4.328c4.08,1.696,6.016,6.376,4.328,10.456l-6.128,14.784 C288.918,174.659,285.942,176.516,282.806,176.516z"/> <path style="fill:#1D1B4C;" d="M432.123,200.396c-3.144,0-6.12-1.856-7.392-4.936c-1.688-4.088,0.248-8.768,4.336-10.456 l14.784-6.12c4.08-1.696,8.76,0.248,10.448,4.328c1.688,4.088-0.248,8.768-4.336,10.456l-14.784,6.12 C434.179,200.196,433.147,200.396,432.123,200.396z"/> <path style="fill:#1D1B4C;" d="M387.777,218.773c-3.144,0-6.12-1.856-7.392-4.936c-1.688-4.08,0.248-8.768,4.328-10.456 l14.784-6.128c4.072-1.688,8.76,0.248,10.456,4.328c1.688,4.08-0.248,8.768-4.328,10.456l-14.784,6.128 C389.833,218.573,388.793,218.773,387.777,218.773z"/> <path style="fill:#1D1B4C;" d="M343.424,237.141c-3.144,0-6.12-1.856-7.392-4.936c-1.688-4.088,0.248-8.768,4.328-10.456 l14.784-6.128c4.072-1.696,8.76,0.248,10.456,4.328c1.688,4.088-0.248,8.768-4.328,10.456l-14.784,6.128 C345.488,236.941,344.448,237.141,343.424,237.141z"/> <path style="fill:#1D1B4C;" d="M172.747,148.795c-2.048,0-4.096-0.784-5.656-2.344L58.847,38.207 c-3.128-3.128-3.128-8.184,0-11.312c3.128-3.128,8.184-3.128,11.312,0L178.403,135.13c3.128,3.128,3.128,8.184,0,11.312 C176.843,148.011,174.795,148.795,172.747,148.795z"/> <path style="fill:#1D1B4C;" d="M479.316,455.364c-2.048,0-4.096-0.784-5.656-2.344L365.417,344.777 c-3.128-3.128-3.128-8.184,0-11.312s8.184-3.128,11.312,0l108.243,108.243c3.128,3.128,3.128,8.184,0,11.312 C483.404,454.58,481.364,455.364,479.316,455.364z"/> </g></symbol><symbol id="mail" viewBox="0 0 512.007 512.007"><title>mail</title><polygon style="fill:#54FEBD;" points="216.003,68.003 216.003,244.003 160.003,244.003 256.003,348.003 352.003,244.003 296.003,244.003 296.003,68.003 "/><g> <path style="fill:#1D1B4C;" d="M504.003,492.003h-496c-4.416,0-8-3.584-8-8v-320c0-4.416,3.584-8,8-8h208c4.416,0,8,3.584,8,8 s-3.584,8-8,8h-200v304h480v-304h-200c-4.416,0-8-3.584-8-8s3.584-8,8-8h208c4.416,0,8,3.584,8,8v320 C512.003,488.419,508.419,492.003,504.003,492.003z"/> <path style="fill:#1D1B4C;" d="M256.003,380.003c-1.832,0-3.656-0.624-5.144-1.872l-248-208c-2.576-2.16-3.528-5.704-2.376-8.864 c1.152-3.16,4.16-5.264,7.52-5.264h208c4.416,0,8,3.584,8,8s-3.584,8-8,8H29.995l226.008,189.56l226.016-189.56H296.003 c-4.416,0-8-3.584-8-8s3.584-8,8-8h208c3.36,0,6.368,2.104,7.52,5.264c1.152,3.16,0.2,6.704-2.376,8.864l-248,208 C259.659,379.379,257.835,380.003,256.003,380.003z"/> <path style="fill:#1D1B4C;" d="M504.003,492.003h-496c-3.432,0-6.488-2.192-7.584-5.448s0.008-6.848,2.744-8.92l200.32-152 c3.512-2.672,8.544-1.984,11.208,1.536c2.664,3.52,1.984,8.536-1.536,11.208L31.779,476.003h448.448L298.851,338.379 c-3.52-2.664-4.208-7.688-1.536-11.208c2.68-3.512,7.688-4.208,11.208-1.536l200.32,152c2.736,2.072,3.84,5.664,2.744,8.92 C510.491,489.811,507.435,492.003,504.003,492.003z"/> <path style="fill:#1D1B4C;" d="M256.003,316.003c-2.232,0-4.36-0.936-5.88-2.576l-96-104c-2.16-2.336-2.72-5.72-1.448-8.632 s4.152-4.792,7.328-4.792h48v-168c0-4.416,3.584-8,8-8s8,3.584,8,8v176c0,4.416-3.584,8-8,8h-37.728l77.728,84.208l77.728-84.208 h-37.728c-4.416,0-8-3.584-8-8v-176c0-4.416,3.584-8,8-8s8,3.584,8,8v168h48c3.176,0,6.056,1.88,7.328,4.792 c1.272,2.912,0.704,6.296-1.448,8.632l-96,104C260.371,315.067,258.235,316.003,256.003,316.003z"/> <path style="fill:#1D1B4C;" d="M256.003,132.003c-2.08,0-4.16-0.88-5.68-2.32c-1.44-1.52-2.32-3.6-2.32-5.68s0.88-4.16,2.32-5.68 c3.04-2.96,8.4-2.96,11.36,0c1.44,1.52,2.32,3.6,2.32,5.68s-0.88,4.16-2.32,5.68C260.163,131.123,258.083,132.003,256.003,132.003z "/> <path style="fill:#1D1B4C;" d="M256.003,100.003c-4.416,0-8-3.584-8-8v-64c0-4.416,3.584-8,8-8s8,3.584,8,8v64 C264.003,96.419,260.419,100.003,256.003,100.003z"/> </g></symbol><symbol id="gps" viewBox="0 0 512 512"><title>gps</title><path style="fill:#54FEBD;" d="M336,128c0,44.184-80,176-80,176s-80-131.816-80-176s35.816-80,80-80S336,83.816,336,128z"/><g> <path style="fill:#1D1B4C;" d="M256,512c-1.256,0-2.52-0.296-3.664-0.888L132,449L11.664,511.112 c-2.48,1.272-5.448,1.168-7.832-0.28C1.456,509.376,0,506.792,0,504V216c0-2.992,1.672-5.736,4.336-7.112l124-64 c2.296-1.184,5.032-1.184,7.336,0l37.84,19.52c3.928,2.024,5.472,6.848,3.44,10.776c-2.024,3.92-6.856,5.464-10.776,3.44L132,161 L16,220.872v269.992l112.336-57.976c2.296-1.184,5.04-1.184,7.336,0L256,495l120.336-62.104c2.296-1.184,5.04-1.184,7.336,0 L496,490.864V220.872L380,161l-34.168,17.624c-3.928,2.016-8.752,0.48-10.776-3.44c-2.024-3.928-0.488-8.752,3.44-10.776 l37.84-19.52c2.304-1.184,5.04-1.184,7.336,0l124,64c2.656,1.376,4.328,4.12,4.328,7.112v288c0,2.792-1.456,5.376-3.832,6.832 c-2.4,1.448-5.36,1.544-7.832,0.28L380,449l-120.336,62.104C258.52,511.704,257.256,512,256,512z"/> <path style="fill:#1D1B4C;" d="M132,448c-4.416,0-8-3.584-8-8V152c0-4.416,3.584-8,8-8s8,3.584,8,8v288 C140,444.416,136.416,448,132,448z"/> <path style="fill:#1D1B4C;" d="M380,448c-4.416,0-8-3.584-8-8V152c0-4.416,3.584-8,8-8s8,3.584,8,8v288 C388,444.416,384.416,448,380,448z"/> <path style="fill:#1D1B4C;" d="M256,512c-4.416,0-8-3.584-8-8V312c0-4.416,3.584-8,8-8c4.416,0,8,3.584,8,8v192 C264,508.416,260.416,512,256,512z"/> <path style="fill:#1D1B4C;" d="M256,272c-2.8,0-5.384-1.464-6.84-3.848C245.848,262.688,168,133.896,168,88c0-48.52,39.48-88,88-88 s88,39.48,88,88c0,45.896-77.848,174.688-81.16,180.152C261.384,270.536,258.8,272,256,272z M256,16c-39.696,0-72,32.304-72,72 c0,31.256,46.96,117.712,72,160.376C281.04,205.712,328,119.248,328,88C328,48.304,295.696,16,256,16z"/> <path style="fill:#1D1B4C;" d="M256,136c-26.472,0-48-21.528-48-48s21.528-48,48-48s48,21.528,48,48S282.472,136,256,136z M256,56 c-17.648,0-32,14.352-32,32s14.352,32,32,32s32-14.352,32-32S273.648,56,256,56z"/> </g></symbol><symbol id="pencil" viewBox="0 0 512 512"><title>pencil</title><circle style="fill:#E04F5F;" cx="256" cy="256" r="256"/><path style="fill:#FFFFFF;" d="M107.055,124.928c0-9.872,8.001-17.873,17.873-17.873H256l74.473,62.557v217.46 c0,9.872-8.001,17.873-17.873,17.873H124.928c-9.872,0-17.873-8.001-17.873-17.873V124.928z"/><path style="fill:#F0F1F1;" d="M256,107.055v44.684c0,9.872,8.001,17.873,17.873,17.873h56.599L256,107.055z"/><polygon style="fill:#F4D0A1;" points="358.4,193.164 381.673,144.291 404.945,193.164 404.945,372.364 358.4,372.364 "/><polygon style="fill:#EDBC7C;" points="404.945,218.764 404.945,193.164 381.673,144.291 381.673,218.764 "/><path style="fill:#F79392;" d="M404.945,390.982c0,7.713-6.251,13.964-13.964,13.964h-18.618c-7.713,0-13.964-6.251-13.964-13.964 v-9.309h46.545V390.982z"/><g> <path style="fill:#E2E4E5;" d="M288.582,209.455c0,2.56-2.095,4.655-4.655,4.655h-69.818c-2.56,0-4.655-2.095-4.655-4.655l0,0 c0-2.56,2.095-4.655,4.655-4.655h69.818C286.487,204.8,288.582,206.895,288.582,209.455L288.582,209.455z"/> <path style="fill:#E2E4E5;" d="M260.655,232.727c0,2.56-2.095,4.655-4.655,4.655h-41.891c-2.56,0-4.655-2.095-4.655-4.655l0,0 c0-2.56,2.095-4.655,4.655-4.655H256C258.56,228.073,260.655,230.167,260.655,232.727L260.655,232.727z"/> <path style="fill:#E2E4E5;" d="M288.582,269.964c0,2.56-2.095,4.655-4.655,4.655h-69.818c-2.56,0-4.655-2.095-4.655-4.655l0,0 c0-2.56,2.095-4.655,4.655-4.655h69.818C286.487,265.309,288.582,267.404,288.582,269.964L288.582,269.964z"/> <path style="fill:#E2E4E5;" d="M260.655,293.236c0,2.56-2.095,4.655-4.655,4.655h-41.891c-2.56,0-4.655-2.095-4.655-4.655l0,0 c0-2.56,2.095-4.655,4.655-4.655H256C258.56,288.582,260.655,290.676,260.655,293.236L260.655,293.236z"/> <path style="fill:#E2E4E5;" d="M288.582,330.473c0,2.56-2.095,4.655-4.655,4.655h-69.818c-2.56,0-4.655-2.095-4.655-4.655l0,0 c0-2.56,2.095-4.655,4.655-4.655h69.818C286.487,325.818,288.582,327.913,288.582,330.473L288.582,330.473z"/> <path style="fill:#E2E4E5;" d="M260.655,353.745c0,2.56-2.095,4.655-4.655,4.655h-41.891c-2.56,0-4.655-2.095-4.655-4.655l0,0 c0-2.56,2.095-4.655,4.655-4.655H256C258.56,349.091,260.655,351.185,260.655,353.745L260.655,353.745z"/> </g><g> <path style="fill:#17B198;" d="M163.221,242.036l-17.566-17.566c-1.82-1.815-1.82-4.766,0-6.582c1.82-1.82,4.766-1.82,6.582,0 l10.361,10.361l20.01-24.013c1.648-1.978,4.58-2.243,6.554-0.596c1.974,1.648,2.243,4.58,0.596,6.554L163.221,242.036z"/> <path style="fill:#17B198;" d="M163.221,302.545l-17.566-17.566c-1.82-1.815-1.82-4.766,0-6.582c1.82-1.82,4.766-1.82,6.582,0 l10.361,10.361l20.01-24.013c1.648-1.978,4.58-2.243,6.554-0.596s2.243,4.58,0.596,6.554L163.221,302.545z"/> <path style="fill:#17B198;" d="M163.221,363.055l-17.566-17.566c-1.82-1.815-1.82-4.766,0-6.582c1.82-1.82,4.766-1.82,6.582,0 l10.361,10.361l20.01-24.013c1.648-1.978,4.58-2.243,6.554-0.596s2.243,4.58,0.596,6.554L163.221,363.055z"/> </g><rect x="358.4" y="367.709" style="fill:#FACB1B;" width="46.545" height="13.964"/><rect x="358.4" y="372.364" style="fill:#FBE158;" width="23.273" height="9.309"/><path style="fill:#3E3E3F;" d="M381.733,144.216l-8.643,18.148c2.383,3.156,5.362,5.125,8.643,5.125s6.26-1.964,8.644-5.125 L381.733,144.216z"/><path style="fill:#0484AB;" d="M393.309,200.145c-5.371,0-9.896-3.64-11.231-8.588c-0.121-0.451-0.684-0.451-0.805,0 c-1.341,4.948-5.865,8.588-11.236,8.588c-4.897,0-9.09-3.025-10.808-7.312c-0.182-0.451-0.829-0.326-0.829,0.163v179.368h46.545 V192.996c0-0.489-0.647-0.61-0.829-0.158C402.399,197.12,398.206,200.145,393.309,200.145z"/><path style="fill:#21B2D1;" d="M358.4,372.364V193.131c0-0.517,0.684-0.647,0.884-0.168c1.745,4.217,5.902,7.182,10.752,7.182 c5.395,0,9.933-3.672,11.25-8.653c0.065-0.242,0.386-0.209,0.386,0.042v180.829H358.4z"/><path style="fill:#F7B4B4;" d="M358.4,381.673v9.309c0,7.713,6.251,13.964,13.964,13.964h9.309v-23.273H358.4z"/></symbol></svg>