<?xml version="1.0" encoding="iso-8859-1"?>
<!-- Generator: Adobe Illustrator 19.0.0, SVG Export Plug-In . SVG Version: 6.00 Build 0)  -->
<svg version="1.1" id="Capa_1" xmlns="http://www.w3.org/2000/svg" xmlns:xlink="http://www.w3.org/1999/xlink" x="0px" y="0px"
	 viewBox="0 0 512.014 512.014" style="enable-background:new 0 0 512.014 512.014;" xml:space="preserve">
<path style="fill:#54FEBD;" d="M511.957,422.723l-21.361,21.441c-23.841,23.841-56.722,37.521-90.403,37.761
	c-43.761,0.32-82.163-26.641-117.364-49.522c-45.041-29.281-86.563-64.082-123.284-103.283
	c-40.881-43.761-79.923-96.163-107.363-149.525c-21.201-41.201-18.321-92.003,7.44-130.564c4.72-7.04,10.16-13.6,16.081-19.601
	L97.224,7.99l108.163,108.243l-31.921,31.841c-8.64,8.72-10.16,22.481-3.2,32.641c45.921,66.162,102.803,123.044,169.045,168.885
	c10.08,6.96,23.921,5.52,32.561-3.2l31.921-31.841L511.957,422.723z"/>
<g>
	<path style="fill:#1D1B4C;" d="M369.305,512.006c-43.185,0.008-81.083-24.761-114.548-46.625l-6.44-4.192
		c-45.569-29.625-87.539-64.802-124.74-104.547C79.448,309.48,40.862,255.734,14.926,205.3
		c-22.385-43.505-19.289-97.923,7.896-138.62c4.992-7.464,10.736-14.464,17.089-20.809L75.992,9.798
		c13.072-13.064,34.329-13.064,47.385,0l72.146,72.122c6.328,6.328,9.816,14.744,9.816,23.689s-3.488,17.361-9.824,23.689
		l-46.537,46.521c-5.984,5.984-6.96,15.6-2.264,22.377c45.329,65.45,101.499,121.604,166.957,166.909
		c6.784,4.696,16.401,3.72,22.393-2.264l46.537-46.521c13.072-13.064,34.329-13.072,47.393-0.008l72.146,72.122
		c6.328,6.328,9.816,14.744,9.816,23.697c0,8.944-3.488,17.361-9.816,23.689l-36.081,36.073
		c-25.265,25.257-60.258,39.873-96.003,40.121C369.801,512.006,369.553,512.006,369.305,512.006z M99.696,15.998
		c-4.488,0-8.968,1.712-12.384,5.12L51.231,57.192C45.615,62.8,40.534,68.984,36.126,75.568
		c-24.001,35.937-26.745,83.987-6.976,122.42c25.281,49.146,62.97,101.603,106.107,147.709
		c36.321,38.817,77.298,73.154,121.78,102.067l6.472,4.216c33.129,21.649,67.378,44.025,105.779,44.025c0.224,0,0.432,0,0.656,0
		c31.585-0.208,62.49-13.128,84.803-35.433l36.081-36.073c3.312-3.304,5.128-7.704,5.128-12.384c0-4.672-1.824-9.072-5.128-12.376
		l-72.146-72.122c-6.832-6.816-17.945-6.824-24.769,0.008l-46.537,46.521l0,0c-11.552,11.552-29.553,13.288-42.809,4.112
		c-67.05-46.401-124.588-103.915-171.005-170.957c-9.176-13.24-7.456-31.241,4.104-42.801l46.537-46.521
		c3.312-3.312,5.136-7.704,5.136-12.376s-1.824-9.072-5.128-12.376l-72.146-72.122C108.665,17.703,104.176,15.998,99.696,15.998z"/>
	<path style="fill:#1D1B4C;" d="M50.495,195.004c-2.904,0-5.704-1.576-7.12-4.336c-4.232-8.224-7.344-17.089-9.24-26.321
		c-1.848-9.04-2.52-18.321-1.992-27.593c0.256-4.416,4.08-7.76,8.448-7.528c4.408,0.248,7.784,4.032,7.528,8.44
		c-0.456,7.896,0.12,15.8,1.688,23.481c1.608,7.808,4.224,15.272,7.792,22.201c2.024,3.928,0.48,8.76-3.456,10.776
		C52.975,194.724,51.727,195.004,50.495,195.004z"/>
	<path style="fill:#1D1B4C;" d="M239.949,119.994c-4.416,0-8-3.576-8-8V95.993c0-4.424,3.584-8,8-8s8,3.576,8,8v16.001
		C247.949,116.418,244.365,119.994,239.949,119.994z"/>
	<path style="fill:#1D1B4C;" d="M239.949,167.995c-4.416,0-8-3.576-8-8v-16.001c0-4.424,3.584-8,8-8s8,3.576,8,8v16.001
		C247.949,164.419,244.365,167.995,239.949,167.995z"/>
	<path style="fill:#1D1B4C;" d="M415.954,279.999h-16.001c-4.416,0-8-3.576-8-8s3.584-8,8-8h16.001c4.416,0,8,3.576,8,8
		S420.37,279.999,415.954,279.999z"/>
	<path style="fill:#1D1B4C;" d="M367.953,279.999h-16.001c-4.416,0-8-3.576-8-8s3.584-8,8-8h16.001c4.416,0,8,3.576,8,8
		S372.369,279.999,367.953,279.999z"/>
	<path style="fill:#1D1B4C;" d="M353.088,166.851c-2.048,0-4.096-0.784-5.656-2.344c-3.128-3.128-3.128-8.184,0-11.312
		l11.312-11.312c3.128-3.128,8.184-3.128,11.312,0c3.128,3.128,3.128,8.184,0,11.312l-11.312,11.312
		C357.184,166.075,355.136,166.851,353.088,166.851z"/>
	<path style="fill:#1D1B4C;" d="M319.143,200.804c-2.048,0-4.096-0.784-5.656-2.344c-3.128-3.128-3.128-8.184,0-11.312
		l11.312-11.312c3.128-3.128,8.184-3.128,11.312,0c3.128,3.128,3.128,8.184,0,11.312l-11.312,11.312
		C323.239,200.02,321.191,200.804,319.143,200.804z"/>
	<path style="fill:#1D1B4C;" d="M319.543,87.833c-1.016,0-2.056-0.192-3.056-0.608c-4.08-1.696-6.016-6.376-4.328-10.456
		l6.128-14.784c1.688-4.08,6.376-6.016,10.456-4.328c4.08,1.696,6.016,6.376,4.328,10.456l-6.128,14.784
		C325.663,85.969,322.687,87.833,319.543,87.833z"/>
	<path style="fill:#1D1B4C;" d="M301.175,132.178c-1.016,0-2.056-0.192-3.056-0.608c-4.08-1.688-6.016-6.368-4.328-10.456
		l6.12-14.784c1.68-4.08,6.352-6.016,10.456-4.328c4.08,1.688,6.016,6.368,4.328,10.456l-6.12,14.784
		C307.295,130.314,304.319,132.178,301.175,132.178z"/>
	<path style="fill:#1D1B4C;" d="M282.806,176.516c-1.016,0-2.056-0.192-3.056-0.608c-4.08-1.696-6.016-6.376-4.328-10.456
		l6.128-14.784c1.688-4.08,6.376-6.024,10.456-4.328c4.08,1.696,6.016,6.376,4.328,10.456l-6.128,14.784
		C288.918,174.659,285.942,176.516,282.806,176.516z"/>
	<path style="fill:#1D1B4C;" d="M432.123,200.396c-3.144,0-6.12-1.856-7.392-4.936c-1.688-4.088,0.248-8.768,4.336-10.456
		l14.784-6.12c4.08-1.696,8.76,0.248,10.448,4.328c1.688,4.088-0.248,8.768-4.336,10.456l-14.784,6.12
		C434.179,200.196,433.147,200.396,432.123,200.396z"/>
	<path style="fill:#1D1B4C;" d="M387.777,218.773c-3.144,0-6.12-1.856-7.392-4.936c-1.688-4.08,0.248-8.768,4.328-10.456
		l14.784-6.128c4.072-1.688,8.76,0.248,10.456,4.328c1.688,4.08-0.248,8.768-4.328,10.456l-14.784,6.128
		C389.833,218.573,388.793,218.773,387.777,218.773z"/>
	<path style="fill:#1D1B4C;" d="M343.424,237.141c-3.144,0-6.12-1.856-7.392-4.936c-1.688-4.088,0.248-8.768,4.328-10.456
		l14.784-6.128c4.072-1.696,8.76,0.248,10.456,4.328c1.688,4.088-0.248,8.768-4.328,10.456l-14.784,6.128
		C345.488,236.941,344.448,237.141,343.424,237.141z"/>
	<path style="fill:#1D1B4C;" d="M172.747,148.795c-2.048,0-4.096-0.784-5.656-2.344L58.847,38.207
		c-3.128-3.128-3.128-8.184,0-11.312c3.128-3.128,8.184-3.128,11.312,0L178.403,135.13c3.128,3.128,3.128,8.184,0,11.312
		C176.843,148.011,174.795,148.795,172.747,148.795z"/>
	<path style="fill:#1D1B4C;" d="M479.316,455.364c-2.048,0-4.096-0.784-5.656-2.344L365.417,344.777
		c-3.128-3.128-3.128-8.184,0-11.312s8.184-3.128,11.312,0l108.243,108.243c3.128,3.128,3.128,8.184,0,11.312
		C483.404,454.58,481.364,455.364,479.316,455.364z"/>
</g>
<g>
</g>
<g>
</g>
<g>
</g>
<g>
</g>
<g>
</g>
<g>
</g>
<g>
</g>
<g>
</g>
<g>
</g>
<g>
</g>
<g>
</g>
<g>
</g>
<g>
</g>
<g>
</g>
<g>
</g>
</svg>
