<?xml version="1.0" encoding="iso-8859-1"?>
<!-- Generator: Adobe Illustrator 19.0.0, SVG Export Plug-In . SVG Version: 6.00 Build 0)  -->
<svg xmlns="http://www.w3.org/2000/svg" xmlns:xlink="http://www.w3.org/1999/xlink" version="1.1" id="Layer_1" x="0px" y="0px" viewBox="0 0 512.001 512.001" style="enable-background:new 0 0 512.001 512.001;" xml:space="preserve" width="512px" height="512px">
<g>
	<g class="svg-yelp">
		<path d="M483.445,138.782C452.134,78.029,399.04,33.106,333.942,12.287C268.848-8.53,199.537-2.753,138.782,28.556    C78.03,59.867,33.107,112.961,12.287,178.06C-8.532,243.157-2.754,312.466,28.556,373.218    c31.31,60.753,84.405,105.676,149.503,126.495c25.683,8.214,52.015,12.287,78.225,12.286    c40.223-0.001,80.151-9.598,116.935-28.555c60.754-31.31,105.677-84.405,126.496-149.503    C520.533,268.844,514.755,199.535,483.445,138.782z M484.321,329.02c-19.503,60.986-61.59,110.728-118.505,140.06    c-56.916,29.333-121.849,34.746-182.834,15.241C121.995,464.818,72.254,422.731,42.92,365.816    C13.588,308.9,8.174,243.969,27.679,182.982C47.184,121.995,89.27,72.254,146.186,42.922    c34.464-17.762,71.863-26.753,109.549-26.753c24.552,0,49.227,3.817,73.284,11.512c60.987,19.503,110.728,61.59,140.06,118.505    C498.412,203.102,503.824,268.033,484.321,329.02z" fill="#d32323"/>
	</g>
</g>
<g>
	<g class="svg-yelp">
		<path d="M251.738,213.86l-18.191-71.919c-0.906-3.589-4.133-6.1-7.832-6.1c-5.266,0-9.125,4.956-7.833,10.061l17.948,70.956    l-87.884-103.497c-2.693-3.171-3.496-6.756-3.497-8.577c0-0.134,0.004-0.258,0.013-0.373l52.807-27.215    c1.425,0.868,4.172,3.702,5.266,8.03l5.392,21.317c0.907,3.587,4.134,6.099,7.833,6.099c5.266,0,9.125-4.956,7.833-10.061    l-5.392-21.316c-2.147-8.486-7.909-15.943-14.68-18.996c-4.32-1.949-8.784-1.947-12.566,0.001l-54.989,28.34    c-3.782,1.95-6.372,5.584-7.293,10.234c-0.256,1.295-0.381,2.645-0.38,4.026c0,6.392,2.674,13.465,7.333,18.952l88.527,104.255    c4.891,5.761,10.095,7.851,14.551,7.851c2.315,0,4.43-0.565,6.193-1.473C250.05,231.798,254.554,224.994,251.738,213.86z" fill="#d32323"/>
	</g>
</g>
<g>
	<g class="svg-yelp">
		<path d="M232.075,259.904c-0.063-0.387-0.139-0.77-0.228-1.148c-1.434-6.071-6.165-10.779-12.331-12.15l-81.298-18.077    c-5.291-1.175-10.803,0.343-14.744,4.065c-3.295,3.111-5.115,7.407-5.114,11.857c0,0.873,0.07,1.753,0.213,2.631l9.96,61.054    c0.873,5.351,4.331,9.904,9.251,12.181c2.184,1.01,4.521,1.51,6.853,1.51c2.923,0,5.836-0.788,8.416-2.342l71.339-42.978    c4.973-2.996,7.9-8.278,7.9-13.937C232.292,261.687,232.22,260.797,232.075,259.904z M216.055,262.663l-71.34,42.978    c-0.056,0.033-0.07,0.042-0.143,0.008c-0.075-0.033-0.079-0.051-0.088-0.115l-9.96-61.054c-0.004-0.022-0.006-0.037-0.006-0.051    c0-0.029,0.012-0.05,0.053-0.088c0.059-0.059,0.073-0.055,0.14-0.039l81.298,18.077c0.047,0.011,0.079,0.021,0.089,0.022    c0.031,0.06,0.05,0.177,0.055,0.193C216.152,262.593,216.127,262.619,216.055,262.663z" fill="#d32323"/>
	</g>
</g>
<g>
	<g class="svg-yelp">
		<path d="M284.564,373.528l-18.83-81.128c-1.518-6.536-6.783-11.419-13.415-12.438c-0.009-0.001-0.017-0.003-0.027-0.004    c-0.979-0.149-1.953-0.212-2.917-0.183c-4.627,0.121-8.962,2.197-11.959,5.734c0,0-0.001,0.001-0.002,0.002v0.001    c-0.526,0.621-1.01,1.286-1.447,1.993c-0.06,0.096-0.119,0.194-0.177,0.293l-42.314,71.733c-1.506,2.553-2.266,5.418-2.266,8.291    c0.001,2.381,0.523,4.766,1.575,6.987c2.322,4.898,6.907,8.313,12.265,9.137l61.145,9.395c0.83,0.127,1.66,0.191,2.485,0.191    c4.503,0,8.842-1.865,11.957-5.222c2.829-3.051,4.351-7.017,4.353-11.083C284.989,375.995,284.85,374.755,284.564,373.528z     M268.784,377.319c-0.056,0.06-0.069,0.057-0.137,0.047l-61.143-9.395c-0.064-0.01-0.081-0.013-0.116-0.087    c-0.015-0.032-0.023-0.053-0.023-0.071c0-0.023,0.011-0.042,0.029-0.074l42.314-71.733c0.024-0.041,0.043-0.066,0.047-0.077    c0.065-0.01,0.182,0.006,0.199,0.006v0.001c0,0,0.017,0.031,0.037,0.113l18.83,81.128c0.005,0.025,0.01,0.041,0.01,0.057    C268.831,377.259,268.819,377.28,268.784,377.319z" fill="#d32323"/>
	</g>
</g>
<g>
	<g class="svg-yelp">
		<path d="M389.445,273.457c-2.642-4.734-7.442-7.838-12.845-8.305l-82.975-7.161c-6.682-0.563-12.955,2.923-15.974,8.916    c-0.242,0.48-0.459,0.967-0.65,1.46c-2.199,5.66-1.094,12.056,2.994,16.681l55.147,62.412c3.121,3.533,7.575,5.513,12.218,5.513    c0.696,0,1.397-0.044,2.101-0.135c5.375-0.695,10.041-4.001,12.479-8.842l27.829-55.248c1.167-2.316,1.747-4.833,1.746-7.346    C391.515,278.66,390.822,275.925,389.445,273.457z M375.335,281.478l-27.829,55.248c-0.03,0.06-0.037,0.073-0.118,0.084    c-0.079,0.016-0.092,0-0.136-0.051l-55.147-62.412c-0.031-0.037-0.05-0.062-0.057-0.067c0.009-0.067,0.063-0.171,0.068-0.189    c0,0,0.032-0.009,0.12,0.001l82.973,7.16c0.066,0.006,0.083,0.008,0.124,0.08c0.018,0.034,0.027,0.056,0.027,0.075    C375.359,281.429,375.351,281.448,375.335,281.478z" fill="#d32323"/>
	</g>
</g>
<g>
	<g class="svg-yelp">
		<path d="M372.426,182.44l-43.944-43.538c-3.851-3.816-9.324-5.47-14.644-4.418c-5.319,1.05-9.754,4.656-11.867,9.649    l-32.451,76.701c-0.876,2.07-1.302,4.236-1.304,6.38c-0.001,4.258,1.675,8.425,4.845,11.567c1.862,1.846,4.074,3.172,6.446,3.944    c1.616,0.527,3.305,0.795,5.01,0.795c2.14,0,4.301-0.423,6.364-1.292c0.053-0.023,0.107-0.046,0.161-0.069l76.397-33.161    c4.973-2.158,8.538-6.628,9.539-11.955c0.19-1.004,0.282-2.013,0.282-3.014C377.26,189.715,375.551,185.536,372.426,182.44z     M361.093,194.058c-0.015,0.081-0.029,0.087-0.091,0.113l-76.397,33.161c-0.044,0.018-0.074,0.029-0.084,0.034    c-0.059-0.03-0.143-0.112-0.157-0.122c0-0.001,0.005-0.037,0.038-0.115l32.451-76.7c0.025-0.06,0.031-0.075,0.112-0.093    c0.085-0.015,0.093-0.004,0.14,0.043l43.945,43.538c0.033,0.033,0.049,0.049,0.049,0.087    C361.1,194.021,361.098,194.037,361.093,194.058z" fill="#d32323"/>
	</g>
</g>
<g>
</g>
<g>
</g>
<g>
</g>
<g>
</g>
<g>
</g>
<g>
</g>
<g>
</g>
<g>
</g>
<g>
</g>
<g>
</g>
<g>
</g>
<g>
</g>
<g>
</g>
<g>
</g>
<g>
</g>
</svg>
